<?xml version="1.0" encoding="UTF-8"?>
<svg version="1.1" xmlns="http://www.w3.org/2000/svg" width="200" height="200">
<path d="M0 0 C0.68064514 0.00242706 1.36129028 0.00485413 2.06256104 0.00735474 C19.48668553 0.12762149 32.44880581 4.04042514 47.49609375 12.609375 C50.72274339 14.55328856 50.72274339 14.55328856 53.875 15.5 C55.58283475 17.12445561 57.24318206 18.7991985 58.875 20.5 C60.29425781 21.86705078 60.29425781 21.86705078 61.7421875 23.26171875 C70.2231465 31.46351518 76.64171793 39.79688483 82.0625 50.3125 C82.38379883 50.92770508 82.70509766 51.54291016 83.03613281 52.17675781 C88.81743567 63.84099967 90.57533325 74.87681193 90.50634766 87.72729492 C90.50004942 90.16834551 90.54702346 92.6044706 90.59765625 95.04492188 C90.77028753 116.50374586 82.19763012 136.68579066 67.31347656 152.11914062 C65.84729928 153.59368544 64.36421034 155.04877441 62.875 156.5 C62.12476563 157.25925781 61.37453125 158.01851562 60.6015625 158.80078125 C44.48438746 174.22893208 22.34441966 181.05528854 0.5 180.9375 C-0.80710937 180.95748047 -2.11421875 180.97746094 -3.4609375 180.99804688 C-28.03264142 180.98585853 -48.50034999 169.3923714 -65.85546875 152.90625 C-82.55149652 135.71840126 -90.71142709 111.82105922 -90.54443359 88.1237793 C-89.80583609 63.0900891 -78.78539993 40.94086457 -61.125 23.5 C-43.80497951 7.8857391 -23.22197115 -0.11592381 0 0 Z M-44.125 40.5 C-44.81335938 41.10585938 -45.50171875 41.71171875 -46.2109375 42.3359375 C-57.89347091 53.30230028 -65.68161482 69.14041572 -66.4609375 85.2265625 C-66.82356017 104.8180942 -62.30391885 121.76967463 -48.3671875 136.29296875 C-47.25730469 137.38544922 -47.25730469 137.38544922 -46.125 138.5 C-45.48820312 139.13550781 -44.85140625 139.77101563 -44.1953125 140.42578125 C-29.79937953 153.89583471 -12.32509562 158.03877819 6.875 157.5 C24.40835648 156.24761739 40.81551382 146.89265472 52.2109375 133.8203125 C65.54550055 117.11888303 68.33145437 99.3018096 66.875 78.5 C66.2314304 73.88671986 64.76795228 69.74875809 62.875 65.5 C62.47410156 64.51515625 62.07320312 63.5303125 61.66015625 62.515625 C53.81217955 44.95435539 39.45062504 33.48344737 21.875 26.5 C-1.25907886 18.89954017 -26.02703882 24.57108285 -44.125 40.5 Z " fill="#010101" transform="translate(100.125,9.5)"/>
<path d="M0 0 C0 0.66 0 1.32 0 2 C0.99 2.33 1.98 2.66 3 3 C5.80052443 7.58267634 7.18927121 11.38547721 8 16.6875 C8.70325373 21.23981206 9.79208675 23.59159217 13 27 C15.13492839 31.05636393 15.17820671 34.45572879 15 39 C15.886875 39.226875 16.77375 39.45375 17.6875 39.6875 C22.5818362 41.62676529 25.03737793 44.47308223 27.8125 48.875 C29.46120162 53.21368846 29.82629547 56.63217482 28.2734375 61.08203125 C25.62125561 66.89311271 21.95282753 70.5357227 16 73 C13.25701904 73.26742554 13.25701904 73.26742554 10.07324219 73.29052734 C8.87809998 73.30328705 7.68295776 73.31604675 6.45159912 73.32919312 C5.16304016 73.33141876 3.8744812 73.33364441 2.546875 73.3359375 C1.20412048 73.3423698 -0.13863265 73.34909849 -1.48138428 73.35610962 C-4.29572799 73.3680753 -7.10994906 73.37179139 -9.92431641 73.37060547 C-13.51319259 73.37040277 -17.10127251 73.39765566 -20.68996048 73.43214989 C-23.4645542 73.45450352 -26.23895922 73.45844039 -29.01363373 73.45738602 C-30.97441992 73.4608644 -32.93514719 73.48248091 -34.89581299 73.50448608 C-43.28688206 73.46173519 -48.9419406 72.63089525 -55.375 66.875 C-58.24204099 61.80254286 -59.48186543 56.50570022 -58.375 50.75 C-55.4542698 44.90853961 -53.24775486 41.44477364 -47 39 C-46.34 39 -45.68 39 -45 39 C-44.9071875 37.4221875 -44.9071875 37.4221875 -44.8125 35.8125 C-44 32 -44 32 -41.51171875 29.74609375 C-38.39683209 26.34054893 -38.22248798 23.65267489 -38 19.25 C-37.4030808 12.66369228 -36.52880541 7.14172644 -32 2 C-21.98628257 -6.22199861 -11.24613138 -5.35985836 0 0 Z M-25 10 C-27.44884366 13.63045354 -27.20433926 16.9656802 -27.125 21.25 C-27.10695313 22.51328125 -27.08890625 23.7765625 -27.0703125 25.078125 C-27.04710938 26.04234375 -27.02390625 27.0065625 -27 28 C-26.34 28 -25.68 28 -25 28 C-24.505 27.113125 -24.01 26.22625 -23.5 25.3125 C-20.58591286 20.7239001 -15.96085835 18.83625802 -11 17 C-8.27122275 16.40335417 -5.80098905 16.1556105 -3 16 C-3.81778343 12.65452231 -4.45792221 10.50819792 -7 8.125 C-12.99483799 5.87693575 -19.97018412 5.59891111 -25 10 Z " fill="#32C1FC" transform="translate(123,72)"/>
<path d="M0 0 C1.2375 -0.02578125 2.475 -0.0515625 3.75 -0.078125 C7 0.25 7 0.25 8.91015625 1.61328125 C10.50496977 4.00835962 10.4809906 5.43276936 10 8.25 C7.88869314 10.90025873 6.57040305 12.09925062 3.265625 12.97265625 C2.27046875 13.08480469 1.2753125 13.19695312 0.25 13.3125 C-8.96280186 14.61260343 -15.82686085 17.10969556 -21.8203125 24.4921875 C-26.56277852 31.17926301 -28.15604266 37.1092688 -29.296875 45.0625 C-29.99904452 48.24566849 -30.33457903 49.45148779 -33 51.25 C-38.13939394 51.89242424 -38.13939394 51.89242424 -40.6640625 50.0078125 C-43.27754014 46.56902613 -42.40572002 42.35862948 -42 38.25 C-40.11948432 26.47559999 -33.54579142 15.47014479 -24 8.25 C-16.35315373 3.67483031 -9.0100594 0.11262574 0 0 Z " fill="#020202" transform="translate(97,54.75)"/>
<path d="M0 0 C0 0.66 0 1.32 0 2 C0.99 2.33 1.98 2.66 3 3 C6.78702812 8.11901733 7.71214171 13.78226091 8 20 C5.50907189 21.24546405 4.58919267 20.7767578 2 20 C2 19.34 2 18.68 2 18 C0.68 18 -0.64 18 -2 18 C-2.24234375 17.44570312 -2.4846875 16.89140625 -2.734375 16.3203125 C-3.06953125 15.59585938 -3.4046875 14.87140625 -3.75 14.125 C-4.07484375 13.40570313 -4.3996875 12.68640625 -4.734375 11.9453125 C-6.27727689 9.57381514 -7.34218892 8.92736574 -10 8 C-12.45343022 7.68561516 -12.45343022 7.68561516 -15 7.75 C-16.2684375 7.74226563 -16.2684375 7.74226563 -17.5625 7.734375 C-20.2301057 8.02507562 -21.78384755 8.49072377 -24 10 C-26.48307386 13.42824391 -26.3958428 17.12517047 -26.625 21.25 C-26.69976562 22.51328125 -26.77453125 23.7765625 -26.8515625 25.078125 C-26.90054688 26.04234375 -26.94953125 27.0065625 -27 28 C-30.63 27.67 -34.26 27.34 -38 27 C-38.27612618 18.30202545 -37.9179263 8.95615899 -32 2 C-21.81460518 -6.08963457 -11.38290897 -5.42504598 0 0 Z " fill="#686C71" transform="translate(123,72)"/>
<path d="M0 0 C1.56041016 -0.04253906 1.56041016 -0.04253906 3.15234375 -0.0859375 C6.0625 0.375 6.0625 0.375 8.40234375 2.02734375 C11.05349471 5.77638311 10.73535772 9.0481298 10.56640625 13.51171875 C10.05874329 16.39634625 9.70173675 17.61768064 7.625 19.625 C3.19194524 21.80264094 -0.09364933 22.31338435 -4.9375 21.375 C-8.69657225 19.45547374 -10.16687924 17.48088139 -11.4375 13.5625 C-12.35605623 8.96971886 -11.25901875 6.37761854 -8.9375 2.375 C-5.51828453 0.09552302 -4.03439823 0.04986895 0 0 Z " fill="#E9350C" transform="translate(179.9375,9.625)"/>
<path d="M0 0 C2.2772724 4.66840841 2.33853477 8.92197846 2 14 C1.34 14.66 0.68 15.32 0 16 C-0.99 16 -1.98 16 -3 16 C-2.67 14.02 -2.34 12.04 -2 10 C-6.455 10.495 -6.455 10.495 -11 11 C-10.67 11.99 -10.34 12.98 -10 14 C-11.32 13.67 -12.64 13.34 -14 13 C-13.63418217 5.80558276 -13.63418217 5.80558276 -10.6875 2.0625 C-7.18185957 -0.62787522 -4.19910438 -2.09955219 0 0 Z " fill="#19B9FB" transform="translate(78,116)"/>
<path d="M0 0 C0.66 0 1.32 0 2 0 C2 0.66 2 1.32 2 2 C2.99 2.33 3.98 2.66 5 3 C8.78702812 8.11901733 9.71214171 13.78226091 10 20 C7.50907189 21.24546405 6.58919267 20.7767578 4 20 C4 19.34 4 18.68 4 18 C2.68 18 1.36 18 0 18 C-0.52992692 16.54494642 -1.0486789 15.08581873 -1.5625 13.625 C-1.85253906 12.81289062 -2.14257812 12.00078125 -2.44140625 11.1640625 C-3 9 -3 9 -2 7 C-1.34 6.01 -0.68 5.02 0 4 C-0.66 3.34 -1.32 2.68 -2 2 C-1.34 2 -0.68 2 0 2 C0 1.34 0 0.68 0 0 Z " fill="#686B70" transform="translate(121,72)"/>
<path d="M0 0 C0 0.66 0 1.32 0 2 C1.32 2 2.64 2 4 2 C4 2.66 4 3.32 4 4 C5.3921875 3.87625 5.3921875 3.87625 6.8125 3.75 C10 4 10 4 11.875 5.6875 C13.16185671 8.33270547 13.24213848 10.09433826 13 13 C11.125 12.6875 11.125 12.6875 9 12 C7 9 7 9 6 6 C3.03 5.505 3.03 5.505 0 5 C0 6.32 0 7.64 0 9 C-0.66 9 -1.32 9 -2 9 C-2 8.01 -2 7.02 -2 6 C-3.32 5.67 -4.64 5.34 -6 5 C-6 4.67 -6 4.34 -6 4 C-8.64 4 -11.28 4 -14 4 C-14 3.34 -14 2.68 -14 2 C-9.35150485 -0.3992233 -5.08913926 -0.19957409 0 0 Z " fill="#22AEE9" transform="translate(121,88)"/>
<path d="M0 0 C1.32 0 2.64 0 4 0 C6.01867252 4.16351207 6.46856604 7.39243396 6 12 C4.87266265 14.79383605 3.51404136 17.39774141 2 20 C1.01 20 0.02 20 -1 20 C-2.1189783 14.65377036 -1.70806483 11.12419449 0 6 C-0.66 5.67 -1.32 5.34 -2 5 C-1.34 3.35 -0.68 1.7 0 0 Z " fill="#15B1F2" transform="translate(146,119)"/>
<path d="M0 0 C2.66666667 1.33333333 5.33333333 2.66666667 8 4 C8.33 2.68 8.66 1.36 9 0 C10.32 0.33 11.64 0.66 13 1 C12.67 2.98 12.34 4.96 12 7 C30.81 7 49.62 7 69 7 C69 7.33 69 7.66 69 8 C61.15030608 8.09285592 53.30074185 8.16384356 45.45063591 8.20724869 C41.8051088 8.22808571 38.15995864 8.25633084 34.51464844 8.30175781 C30.99385013 8.34535643 27.47341339 8.36916631 23.95236588 8.37950897 C21.96152053 8.39045006 19.97081978 8.42165399 17.98019409 8.45318604 C6.66470008 8.45598637 6.66470008 8.45598637 2 4 C0.625 1.75 0.625 1.75 0 0 Z " fill="#1FB0EE" transform="translate(67,136)"/>
<path d="M0 0 C1.56041016 -0.04253906 1.56041016 -0.04253906 3.15234375 -0.0859375 C6.0625 0.375 6.0625 0.375 8.41015625 2.01953125 C10.50261896 5.00240362 10.59838497 6.81760383 10.5625 10.4375 C10.5728125 11.48035156 10.583125 12.52320313 10.59375 13.59765625 C10.0625 16.375 10.0625 16.375 8.03125 18.24609375 C7.3815625 18.61863281 6.731875 18.99117187 6.0625 19.375 C6.0625 18.055 6.0625 16.735 6.0625 15.375 C7.0525 15.375 8.0425 15.375 9.0625 15.375 C8.97516424 13.76982903 8.86697776 12.16578338 8.75 10.5625 C8.69199219 9.66917969 8.63398438 8.77585937 8.57421875 7.85546875 C7.9789643 4.97007505 7.48300897 4.03113771 5.0625 2.375 C2.56046352 1.79928504 2.56046352 1.79928504 -0.125 1.6875 C-1.02605469 1.62175781 -1.92710937 1.55601563 -2.85546875 1.48828125 C-3.54253906 1.45089844 -4.22960937 1.41351563 -4.9375 1.375 C-7.3981443 6.84309845 -6.64834699 9.86227081 -4.9375 15.375 C-5.5975 15.375 -6.2575 15.375 -6.9375 15.375 C-6.6075 16.695 -6.2775 18.015 -5.9375 19.375 C-7.8125 18.875 -7.8125 18.875 -9.9375 17.375 C-11.66806178 12.93573281 -12.54009193 9.9940729 -10.75 5.5 C-7.88212987 0.55539633 -5.4328774 0.06715547 0 0 Z " fill="#E5370D" transform="translate(179.9375,9.625)"/>
<path d="M0 0 C0.66 0.33 1.32 0.66 2 1 C1.195625 1.556875 0.39125 2.11375 -0.4375 2.6875 C-3.24228216 5.21864487 -3.69381595 6.32579134 -4 10 C-4.66 10 -5.32 10 -6 10 C-5.34 10.66 -4.68 11.32 -4 12 C-3.34 11.34 -2.68 10.68 -2 10 C0.125 10.375 0.125 10.375 2 11 C0.73760288 11.86658615 -0.53527501 12.71792059 -1.8125 13.5625 C-2.87404297 14.27599609 -2.87404297 14.27599609 -3.95703125 15.00390625 C-6 16 -6 16 -9 15 C-9 13.68 -9 12.36 -9 11 C-14.94 10.01 -14.94 10.01 -21 9 C-21 8.67 -21 8.34 -21 8 C-19.41676312 7.972807 -17.83338938 7.95351694 -16.25 7.9375 C-14.92742187 7.92009766 -14.92742187 7.92009766 -13.578125 7.90234375 C-11.2181162 7.99173802 -9.25501476 8.33087179 -7 9 C-6.773125 8.2575 -6.54625 7.515 -6.3125 6.75 C-4.75592468 3.48860409 -2.91481146 2.07105025 0 0 Z " fill="#45BDEF" transform="translate(105,91)"/>
<path d="M0 0 C-0.33 0.99 -0.66 1.98 -1 3 C-1.66 3 -2.32 3 -3 3 C-3.061875 3.61875 -3.12375 4.2375 -3.1875 4.875 C-4 7 -4 7 -6.3125 8.25 C-9 9 -9 9 -13 9 C-12.9375 6.75 -12.9375 6.75 -12 4 C-7.93206408 1.10550713 -5.11091701 -0.61950509 0 0 Z " fill="#27BEFB" transform="translate(114,91)"/>
<path d="M0 0 C3.73678306 4.71159603 4.11284843 8.01903338 4 14 C4.886875 14.226875 5.77375 14.45375 6.6875 14.6875 C10.43380532 16.17188513 12.33729434 18.02403485 15 21 C13.02 21.99 13.02 21.99 11 23 C10.34 22.01 9.68 21.02 9 20 C8.01 19.67 7.02 19.34 6 19 C5.67 18.01 5.34 17.02 5 16 C4.34 15.67 3.68 15.34 3 15 C2.65458149 12.66842508 2.32205743 10.33491639 2 8 C1.34 7.01 0.68 6.02 0 5 C-0.125 2.3125 -0.125 2.3125 0 0 Z " fill="#2AB5ED" transform="translate(134,97)"/>
<path d="M0 0 C2.64 0 5.28 0 8 0 C8 0.66 8 1.32 8 2 C10.97 2.495 10.97 2.495 14 3 C13.67 3.99 13.34 4.98 13 6 C12.34 5.67 11.68 5.34 11 5 C11 4.34 11 3.68 11 3 C8.03 2.505 8.03 2.505 5 2 C5 3.32 5 4.64 5 6 C4.34 6 3.68 6 3 6 C3 5.01 3 4.02 3 3 C1.68 2.67 0.36 2.34 -1 2 C-0.67 1.34 -0.34 0.68 0 0 Z " fill="#0CB7FB" transform="translate(116,91)"/>
<path d="M0 0 C0.66 0.33 1.32 0.66 2 1 C1.34 1.66 0.68 2.32 0 3 C-0.32013184 5.79477762 -0.32013184 5.79477762 -0.25 8.9375 C-0.25515625 9.99839844 -0.2603125 11.05929688 -0.265625 12.15234375 C-0.20859765 15.20171473 -0.20859765 15.20171473 2 18 C0.125 17.5 0.125 17.5 -2 16 C-3.76750179 11.46597367 -4.60482208 8.61144063 -2.6875 4.0625 C-1 1 -1 1 0 0 Z " fill="#C7452D" transform="translate(172,11)"/>
<path d="M0 0 C2.97 0.495 2.97 0.495 6 1 C5.34 2.32 4.68 3.64 4 5 C5.65 5.33 7.3 5.66 9 6 C9 6.99 9 7.98 9 9 C8.01 9 7.02 9 6 9 C6 8.34 6 7.68 6 7 C4.68 7 3.36 7 2 7 C0.5393715 4.35261084 0 3.10551666 0 0 Z " fill="#61706F" transform="translate(119,83)"/>
<path d="M0 0 C1.18771723 3.42943519 0.80226223 5.37784675 -0.4375 8.75 C-0.72496094 9.54921875 -1.01242188 10.3484375 -1.30859375 11.171875 C-1.53675781 11.77515625 -1.76492187 12.3784375 -2 13 C-2.66 13 -3.32 13 -4 13 C-4.8125 10.4375 -4.8125 10.4375 -5 7 C-3.61938689 4.41907773 -1.8985496 2.22044902 0 0 Z " fill="#06B0FB" transform="translate(149,126)"/>
<path d="M0 0 C3.18128507 -0.35347612 4.55326883 -0.34157 7.140625 1.63671875 C9.48968282 4.62239098 9.53729816 6.30004786 9.5 10.0625 C9.5103125 11.10535156 9.520625 12.14820313 9.53125 13.22265625 C9 16 9 16 6.96875 17.87109375 C6.3190625 18.24363281 5.669375 18.61617187 5 19 C5 17.68 5 16.36 5 15 C5.99 15 6.98 15 8 15 C7.91266424 13.39482903 7.80447776 11.79078338 7.6875 10.1875 C7.60048828 8.84751953 7.60048828 8.84751953 7.51171875 7.48046875 C6.92785231 4.65027648 6.24159208 3.75811143 4 2 C1.90010348 0.82425289 1.90010348 0.82425289 0 0 Z " fill="#CB4025" transform="translate(181,10)"/>
<path d="M0 0 C0.99 0 1.98 0 3 0 C3.33 1.65 3.66 3.3 4 5 C2.68 5.33 1.36 5.66 0 6 C0.33 6.99 0.66 7.98 1 9 C-0.32 8.67 -1.64 8.34 -3 8 C-3 7.01 -3 6.02 -3 5 C-2.34 5 -1.68 5 -1 5 C-0.67 3.35 -0.34 1.7 0 0 Z " fill="#0EACFB" transform="translate(67,121)"/>
<path d="M0 0 C3.73678306 4.71159603 4.11284843 8.01903338 4 14 C5.65 14.33 7.3 14.66 9 15 C5.25 16.125 5.25 16.125 3 15 C2.65458149 12.66842508 2.32205743 10.33491639 2 8 C1.34 7.01 0.68 6.02 0 5 C-0.125 2.3125 -0.125 2.3125 0 0 Z " fill="#45B5E6" transform="translate(134,97)"/>
<path d="M0 0 C-0.66 2.31 -1.32 4.62 -2 7 C-2.66 6.34 -3.32 5.68 -4 5 C-6.60280568 5.32041397 -6.60280568 5.32041397 -9 6 C-8 3 -8 3 -5.0625 1.3125 C-2 0 -2 0 0 0 Z " fill="#39B7EF" transform="translate(78,111)"/>
<path d="M0 0 C-0.33 0.99 -0.66 1.98 -1 3 C-2.32 3 -3.64 3 -5 3 C-5.33 3.66 -5.66 4.32 -6 5 C-6.66 5 -7.32 5 -8 5 C-8 3.68 -8 2.36 -8 1 C-5.07175348 0.02391783 -3.04386724 -0.08226668 0 0 Z " fill="#11B9FB" transform="translate(114,91)"/>
<path d="M0 0 C1.32 0.33 2.64 0.66 4 1 C3.67 2.32 3.34 3.64 3 5 C1.68 4.67 0.36 4.34 -1 4 C-1.33 5.65 -1.66 7.3 -2 9 C-2.33 9 -2.66 9 -3 9 C-3.26218749 5.85375007 -3.24754367 4.38162983 -1.5 1.6875 C-1.005 1.130625 -0.51 0.57375 0 0 Z " fill="#29B2E9" transform="translate(68,117)"/>
<path d="M0 0 C0.99 0 1.98 0 3 0 C3 1.32 3 2.64 3 4 C4.32 4.33 5.64 4.66 7 5 C5.02 5.66 3.04 6.32 1 7 C0 2.25 0 2.25 0 0 Z " fill="#04B1F9" transform="translate(137,136)"/>
<path d="M0 0 C1.98 0.495 1.98 0.495 4 1 C3.67 2.98 3.34 4.96 3 7 C1.68 6.34 0.36 5.68 -1 5 C-0.67 3.35 -0.34 1.7 0 0 Z " fill="#02B2FA" transform="translate(76,136)"/>
<path d="M0 0 C0.66 0.33 1.32 0.66 2 1 C1.50168276 4.68754757 0.89932357 6.60490662 -2 9 C-2.20140476 5.37471432 -1.85776765 3.13498292 0 0 Z " fill="#26AEE5" transform="translate(149,130)"/>
<path d="M0 0 C2.31 0.33 4.62 0.66 7 1 C7 1.99 7 2.98 7 4 C6.01 4 5.02 4 4 4 C4 3.34 4 2.68 4 2 C2.68 2 1.36 2 0 2 C0 1.34 0 0.68 0 0 Z " fill="#4380A3" transform="translate(121,88)"/>
<path d="" fill="#FFFFFF" transform="translate(0,0)"/>
<path d="" fill="#FFFFFF" transform="translate(0,0)"/>
<path d="" fill="#FFFFFF" transform="translate(0,0)"/>
<path d="" fill="#FFFFFF" transform="translate(0,0)"/>
<path d="" fill="#FFFFFF" transform="translate(0,0)"/>
<path d="" fill="#FFFFFF" transform="translate(0,0)"/>
<path d="" fill="#FFFFFF" transform="translate(0,0)"/>
<path d="" fill="#FFFFFF" transform="translate(0,0)"/>
<path d="" fill="#FFFFFF" transform="translate(0,0)"/>
<path d="" fill="#FFFFFF" transform="translate(0,0)"/>
<path d="" fill="#FFFFFF" transform="translate(0,0)"/>
<path d="" fill="#FFFFFF" transform="translate(0,0)"/>
<path d="" fill="#FFFFFF" transform="translate(0,0)"/>
<path d="" fill="#FFFFFF" transform="translate(0,0)"/>
<path d="" fill="#FFFFFF" transform="translate(0,0)"/>
<path d="" fill="#FFFFFF" transform="translate(0,0)"/>
<path d="" fill="#FFFFFF" transform="translate(0,0)"/>
<path d="" fill="#FFFFFF" transform="translate(0,0)"/>
<path d="" fill="#FFFFFF" transform="translate(0,0)"/>
<path d="" fill="#FFFFFF" transform="translate(0,0)"/>
<path d="" fill="#FFFFFF" transform="translate(0,0)"/>
<path d="" fill="#FFFFFF" transform="translate(0,0)"/>
<path d="" fill="#FFFFFF" transform="translate(0,0)"/>
<path d="" fill="#FFFFFF" transform="translate(0,0)"/>
<path d="" fill="#FFFFFF" transform="translate(0,0)"/>
<path d="" fill="#FFFFFF" transform="translate(0,0)"/>
<path d="" fill="#FFFFFF" transform="translate(0,0)"/>
<path d="" fill="#FFFFFF" transform="translate(0,0)"/>
<path d="" fill="#FFFFFF" transform="translate(0,0)"/>
<path d="" fill="#FFFFFF" transform="translate(0,0)"/>
<path d="" fill="#FFFFFF" transform="translate(0,0)"/>
<path d="" fill="#FFFFFF" transform="translate(0,0)"/>
<path d="" fill="#FFFFFF" transform="translate(0,0)"/>
<path d="" fill="#FFFFFF" transform="translate(0,0)"/>
<path d="" fill="#FFFFFF" transform="translate(0,0)"/>
<path d="" fill="#FFFFFF" transform="translate(0,0)"/>
<path d="" fill="#FFFFFF" transform="translate(0,0)"/>
<path d="" fill="#FFFFFF" transform="translate(0,0)"/>
<path d="" fill="#FFFFFF" transform="translate(0,0)"/>
<path d="" fill="#FFFFFF" transform="translate(0,0)"/>
<path d="" fill="#FFFFFF" transform="translate(0,0)"/>
</svg>
